<?xml version="1.0" encoding="UTF-8" standalone="no"?>
<!DOCTYPE svg PUBLIC "-//W3C//DTD SVG 1.1//EN" "http://www.w3.org/Graphics/SVG/1.1/DTD/svg11.dtd">
<svg width="100%" height="100%" viewBox="0 0 2228 2228" version="1.1" xmlns="http://www.w3.org/2000/svg" xmlns:xlink="http://www.w3.org/1999/xlink" xml:space="preserve" xmlns:serif="http://www.serif.com/" style="fill-rule:evenodd;clip-rule:evenodd;stroke-linejoin:round;stroke-miterlimit:2;">
    <g transform="matrix(8.33333,0,0,8.33333,1665.44,645.375)">
        <path d="M0,112.459L-6.39,134.761C-7.013,136.946 -9.009,138.454 -11.282,138.454L-124.88,138.416L-105.687,73.534L-126.948,80.112L-122.4,64.687L-101.133,58.102L-74.164,-33.044C-73.538,-35.23 -71.538,-36.734 -69.264,-36.73L-40.498,-36.73C-38.388,-36.73 -36.678,-35.019 -36.678,-32.909C-36.678,-32.552 -36.729,-32.196 -36.827,-31.853L-59.526,45.187L-38.266,38.58L-42.813,54.004L-64.095,60.627L-77.932,107.575L-3.678,107.575C-1.564,107.575 0.149,109.29 0.149,111.404C0.148,111.761 0.098,112.116 0,112.459M-138.297,-77.445C-172.293,-77.445 -199.853,-49.886 -199.853,-15.889L-199.853,189.904L5.933,189.904C39.93,189.904 67.489,162.344 67.489,128.348L67.489,-77.445L-138.297,-77.445Z" style="fill:white;fill-rule:nonzero;"/>
    </g>
</svg>
