<?xml version="1.0" encoding="UTF-8" standalone="no"?>
<!DOCTYPE svg PUBLIC "-//W3C//DTD SVG 1.1//EN" "http://www.w3.org/Graphics/SVG/1.1/DTD/svg11.dtd">
<svg width="100%" height="100%" viewBox="0 0 7741 2251" version="1.1" xmlns="http://www.w3.org/2000/svg" xmlns:xlink="http://www.w3.org/1999/xlink" xml:space="preserve" xmlns:serif="http://www.serif.com/" style="fill-rule:evenodd;clip-rule:evenodd;stroke-linejoin:round;stroke-miterlimit:2;">
    <g transform="matrix(8.33333,0,0,8.33333,-30216.5,-46770)">
        <g transform="matrix(1,0,0,1,3825.84,5691.28)">
            <path d="M0,112.459L-6.39,134.761C-7.013,136.946 -9.009,138.454 -11.282,138.454L-124.88,138.416L-105.687,73.534L-126.948,80.112L-122.4,64.687L-101.133,58.102L-74.164,-33.044C-73.538,-35.23 -71.538,-36.734 -69.264,-36.73L-40.498,-36.73C-38.388,-36.73 -36.678,-35.019 -36.678,-32.909C-36.678,-32.552 -36.729,-32.196 -36.827,-31.853L-59.526,45.187L-38.266,38.58L-42.813,54.004L-64.095,60.627L-77.932,107.575L-3.678,107.575C-1.564,107.575 0.149,109.29 0.149,111.404C0.148,111.761 0.098,112.116 0,112.459M-138.297,-77.445C-172.293,-77.445 -199.853,-49.886 -199.853,-15.889L-199.853,189.904L5.933,189.904C39.93,189.904 67.489,162.344 67.489,128.348L67.489,-77.445L-138.297,-77.445Z" style="fill:white;fill-rule:nonzero;"/>
        </g>
        <g transform="matrix(1,0,0,1,3941.81,5615.93)">
            <path d="M0,133.048L16.405,-0.011C16.535,-1.113 17.411,-1.969 18.519,-1.966L28.106,-1.966C29.28,-1.966 30.022,-1.346 29.872,-0.011L14.798,122.097C14.779,122.311 14.852,122.522 14.999,122.679C15.094,122.799 15.237,122.872 15.39,122.879L69.094,122.879C70.393,122.888 70.823,123.534 70.658,124.835L69.675,133.048C69.532,134.205 68.673,135.017 67.561,135.014L1.733,135.014C0.56,135.014 -0.162,134.205 0,133.048" style="fill:white;fill-rule:nonzero;"/>
        </g>
        <g transform="matrix(1,0,0,1,4025.52,5615.93)">
            <path d="M0,133.052L16.437,-0.007C16.556,-1.109 17.291,-1.962 18.551,-1.962L28.138,-1.962C29.433,-1.969 30.042,-1.306 29.903,-0.007L13.53,133.052C13.399,134.227 12.528,135.021 11.416,135.018L1.829,135.018C0.592,135.018 -0.142,134.299 0,133.052" style="fill:white;fill-rule:nonzero;"/>
        </g>
        <g transform="matrix(1,0,0,1,4150.18,5749.05)">
            <path d="M0,-133.135L-1.194,-124.911C-1.334,-123.781 -2.052,-122.938 -3.14,-122.956L-34.248,-122.956C-34.801,-122.938 -34.962,-122.669 -35.02,-122.131L-50.093,-0.076C-50.092,0.444 -50.306,0.941 -50.685,1.298C-51.103,1.702 -51.668,1.916 -52.249,1.89L-61.836,1.89C-63.147,1.89 -63.665,1.234 -63.401,-0.076L-48.528,-122.131C-48.449,-122.669 -48.729,-122.914 -49.12,-122.914L-79.055,-122.914C-79.566,-122.92 -80.024,-123.119 -80.334,-123.505C-80.654,-123.882 -80.678,-124.373 -80.62,-124.869L-79.647,-133.093C-79.548,-134.093 -78.641,-135.051 -77.533,-135.048L-1.808,-135.048C-0.545,-135.044 0.172,-134.434 0,-133.135" style="fill:white;fill-rule:nonzero;"/>
        </g>
        <g transform="matrix(1,0,0,1,4235.29,5738.85)">
            <path d="M0,-112.749L-56.942,-112.749C-57.5,-112.731 -57.715,-112.462 -57.767,-111.925L-63.834,-63.396C-63.902,-62.891 -63.688,-62.614 -63.052,-62.614L-24.692,-62.614C-23.392,-62.614 -22.958,-62.012 -23.128,-60.659L-24.111,-52.435C-24.249,-51.323 -24.948,-50.48 -26.225,-50.48L-64.574,-50.48C-65.068,-50.48 -65.301,-50.265 -65.356,-49.697L-71.423,-0.778C-71.489,-0.316 -71.238,0.006 -70.832,0.004L-13.889,0.004C-13.291,0.006 -12.664,0.263 -12.448,0.509C-12.232,0.754 -12.035,1.136 -12.135,1.96L-13.107,10.173C-13.185,11.282 -14.109,12.142 -15.221,12.139L-84.531,12.139C-85.704,12.139 -86.446,11.467 -86.296,10.173L-69.859,-122.928C-69.731,-124.138 -68.888,-124.873 -67.745,-124.884L1.522,-124.884C2.761,-124.891 3.263,-124.317 3.086,-122.928L2.114,-114.705C1.954,-113.52 1.236,-112.749 0,-112.749" style="fill:white;fill-rule:nonzero;"/>
        </g>
        <g transform="matrix(1,0,0,1,4246.43,5621.11)">
            <path d="M0,122.689C-6.131,116.889 -9.196,108.965 -9.196,98.916C-9.196,97.743 -9.069,95.745 -8.805,92.849L-0.973,29.649C0.331,18.036 4.912,8.738 12.769,1.754C20.626,-5.229 30.375,-8.717 42.017,-8.71C52.587,-8.71 60.938,-5.807 67.068,0C73.199,5.806 76.265,13.664 76.265,23.572C76.265,24.755 76.127,26.647 75.874,29.248L75.673,31.013C75.537,31.963 74.649,32.931 73.527,32.968L63.739,33.36C62.732,33.388 61.898,32.824 61.983,32.038C61.962,31.891 62.365,28.857 62.365,28.857C62.525,27.496 62.592,26.125 62.565,24.755C62.565,18.23 60.575,13.043 56.593,9.196C52.612,5.348 47.231,3.425 40.453,3.425C32.884,3.425 26.542,5.739 21.426,10.369C16.31,14.999 13.343,21.161 12.526,28.857L4.503,93.832C4.35,95.13 4.286,96.437 4.312,97.743C4.312,104.262 6.268,109.48 10.179,113.398C14.09,117.316 19.439,119.271 26.225,119.264C33.236,119.447 40.048,116.927 45.251,112.224C50.449,107.427 53.688,100.875 54.342,93.832L54.679,90.932C54.816,89.884 55.792,89.271 56.847,89.329L66.434,89.911C67.646,89.963 68.166,90.358 68.022,91.596L67.808,93.24C66.498,104.72 61.917,113.951 54.067,120.934C46.217,127.918 36.464,131.406 24.809,131.399C14.407,131.399 6.138,128.496 0,122.689" style="fill:white;fill-rule:nonzero;"/>
        </g>
        <g transform="matrix(1,0,0,1,4384.68,5631.98)">
            <path d="M0,100.957C5.285,96.024 8.456,89.502 9.513,81.391L17.145,19.957C17.29,18.524 17.354,17.084 17.335,15.644C17.335,8.597 15.313,2.988 11.268,-1.184C7.223,-5.355 1.737,-7.441 -5.19,-7.441C-12.422,-7.618 -19.427,-4.91 -24.661,0.085C-29.946,5.116 -33.043,11.74 -33.952,19.957L-41.583,81.391C-41.736,82.824 -41.8,84.264 -41.774,85.704C-41.774,92.617 -39.755,98.128 -35.717,102.236C-31.679,106.344 -26.264,108.398 -19.471,108.398C-12.253,108.585 -5.254,105.91 0,100.957M-45.992,111.432C-52.186,105.365 -55.283,97.261 -55.283,87.12C-55.283,85.817 -55.152,83.731 -54.892,80.863L-47.493,20.401C-46.083,8.421 -41.354,-1.233 -33.307,-8.562C-25.26,-15.89 -15.429,-19.562 -3.816,-19.576C6.754,-19.576 15.168,-16.511 21.426,-10.38C27.683,-4.249 30.812,3.904 30.812,14.08C30.812,15.391 30.685,17.473 30.421,20.348L23.022,80.81C21.612,92.684 16.853,102.271 8.741,109.572C0.63,116.872 -9.235,120.526 -20.855,120.533C-31.405,120.533 -39.783,117.499 -45.992,111.432" style="fill:white;fill-rule:nonzero;"/>
        </g>
        <g transform="matrix(1,0,0,1,4423.32,5615.93)">
            <path d="M0,133.051L16.437,-0.008C16.528,-1.217 17.443,-1.966 18.551,-1.963L28.138,-1.963C29.312,-1.963 30.033,-1.352 29.893,-0.008L13.499,133.051C13.381,134.235 12.627,135.015 11.384,135.017L1.787,135.017C0.582,135.017 -0.151,134.315 0,133.051" style="fill:white;fill-rule:nonzero;"/>
        </g>
        <g transform="matrix(1,0,0,1,4459.09,5615.93)">
            <path d="M0,133.052L16.437,-0.007C16.52,-1.112 17.443,-1.965 18.551,-1.962L28.138,-1.962C29.438,-1.962 29.86,-1.673 30.252,-0.588L68.612,102.536C69.003,103.514 69.514,103.056 69.584,102.335L82.11,-0.007C82.319,-1.539 83.288,-1.969 84.267,-1.962L94.139,-1.962C95.45,-1.962 95.878,-1.351 95.714,-0.007L79.446,133.052C79.369,134.161 78.444,135.021 77.333,135.018L67.354,135.018C66.181,135.018 65.748,134.559 65.398,133.644L27.007,30.129C26.74,29.452 26.121,29.694 26.024,30.52L13.499,133.052C13.42,134.161 12.497,135.021 11.384,135.018L1.755,135.018C0.582,135.018 -0.135,134.263 0,133.052" style="fill:white;fill-rule:nonzero;"/>
        </g>
        <g transform="matrix(1,0,0,1,4027.61,5812.73)">
            <path d="M0,55.149C3.56,52.301 6.107,48.704 7.806,43.865C9.099,40.211 10.173,34.78 11.023,27.575C11.658,22.522 11.992,18.328 12.027,14.994C12.045,13.275 12.009,12.038 11.92,11.284C11.39,6.445 9.663,2.602 6.743,-0.249C3.819,-3.097 0.084,-4.523 -4.463,-4.523C-9.012,-4.523 -13.042,-3.097 -16.556,-0.249C-20.069,2.602 -22.722,6.445 -24.515,11.284C-25.714,14.832 -26.739,20.264 -27.589,27.575C-28.221,32.413 -28.554,36.554 -28.59,39.994C-28.609,41.823 -28.575,43.114 -28.485,43.865C-28.052,48.704 -26.376,52.55 -23.452,55.397C-20.532,58.248 -16.863,59.479 -12.218,59.479C-7.768,59.479 -3.564,57.999 0,55.149M-30.144,63.704C-34.555,59.727 -37.256,54.243 -38.246,47.252C-38.514,44.994 -38.631,42.414 -38.601,39.51C-38.567,36.284 -38.285,32.252 -37.748,27.413C-36.791,19.243 -35.369,12.683 -33.478,7.736C-30.89,0.855 -26.89,-4.575 -21.477,-8.555C-16.064,-12.532 -9.924,-14.523 -3.051,-14.523C3.626,-14.523 9.144,-12.532 13.507,-8.555C17.868,-4.575 20.545,0.8 21.54,7.574C21.904,9.618 22.073,12.146 22.042,15.155C22.017,17.522 21.683,21.607 21.042,27.413C19.984,36.017 18.56,42.63 16.77,47.252C14.179,54.243 10.202,59.727 4.84,63.704C-0.526,67.683 -6.596,69.672 -13.368,69.672C-20.144,69.672 -25.737,67.683 -30.144,63.704" style="fill:white;fill-rule:nonzero;"/>
        </g>
        <g transform="matrix(1,0,0,1,4110.77,5882.24)">
            <path d="M0,-82.742L7.114,-82.742C8.055,-82.743 8.492,-82.01 8.403,-81.129L-1.128,-2.741C-1.257,-1.704 -1.871,-1.128 -2.742,-1.128L-9.855,-1.128C-10.725,-1.128 -11.26,-1.715 -11.144,-2.741L-10.256,-9.423C-10.182,-9.912 -10.279,-10.083 -10.486,-10.16C-10.775,-10.268 -11.012,-9.874 -11.056,-9.812C-15.762,-3.268 -22.382,0.001 -30.915,0.001C-37.303,0.001 -42.559,-1.987 -46.676,-5.967C-50.797,-9.944 -52.818,-15.483 -52.744,-22.58C-52.736,-23.331 -52.626,-24.677 -52.412,-26.612L-45.889,-81.129C-45.797,-82.21 -45.147,-82.742 -44.275,-82.742L-37.017,-82.742C-36.052,-82.742 -35.735,-82.36 -35.872,-81.129L-42.069,-30C-42.175,-29.246 -42.234,-28.117 -42.25,-26.612C-42.304,-21.45 -41.57,-17.613 -39.036,-14.657C-36.503,-11.699 -32.325,-10.688 -27.678,-10.688C-23.759,-10.688 -19.708,-12.493 -16.973,-14.815C-10.686,-20.153 -8.669,-27.705 -7.721,-34.11C-6.772,-40.516 -1.613,-81.129 -1.613,-81.129C-1.493,-82.328 -0.87,-82.742 0,-82.742" style="fill:white;fill-rule:nonzero;"/>
        </g>
        <g transform="matrix(1,0,0,1,4178.23,5874.82)">
            <path d="M0,-70.163C3.826,-65.97 5.704,-60.269 5.628,-53.066C5.619,-52.204 5.505,-50.7 5.291,-48.55L-1.074,4.677C-1.181,5.737 -1.816,6.29 -2.688,6.29L-9.944,6.29C-10.865,6.275 -11.215,5.69 -11.089,4.677L-4.894,-46.292C-4.791,-47.043 -4.73,-48.119 -4.716,-49.517C-4.662,-54.679 -5.949,-58.792 -8.579,-61.856C-11.208,-64.921 -14.645,-66.311 -19.192,-66.311C-24.417,-66.311 -28.801,-63.679 -32.417,-60.024C-36.038,-56.367 -38.553,-49.898 -39.074,-45.847C-39.594,-41.797 -45.347,4.677 -45.347,4.677C-45.415,5.1 -45.501,5.483 -45.794,5.806C-46.088,6.128 -46.478,6.29 -46.961,6.29L-54.074,6.29C-54.945,6.29 -55.496,5.656 -55.364,4.677L-45.833,-73.711C-45.71,-74.848 -45.091,-75.324 -44.219,-75.324L-37.106,-75.324C-36.375,-75.319 -35.68,-74.851 -35.816,-73.711L-36.616,-66.776C-36.645,-66.549 -36.624,-66.3 -36.496,-66.24C-36.382,-66.186 -36.228,-66.192 -36.038,-66.453C-33.68,-69.785 -30.776,-72.285 -27.322,-73.953C-23.871,-75.619 -20.063,-76.453 -15.901,-76.453C-9.128,-76.453 -3.827,-74.356 0,-70.163" style="fill:white;fill-rule:nonzero;"/>
        </g>
        <g transform="matrix(1,0,0,1,4240.37,5810.87)">
            <path d="M0,29.432C0.545,25.564 0.806,21.798 0.844,18.141C0.875,15.132 0.567,12.475 -0.08,9.678C-0.816,6.024 -2.333,3.093 -4.632,0.888C-6.932,-1.315 -9.874,-2.419 -13.453,-2.419C-17.132,-2.419 -20.484,-1.589 -23.504,0.56C-26.528,2.712 -28.88,5.56 -30.562,9.109C-31.943,11.476 -33.059,14.164 -33.913,17.174C-34.767,20.185 -35.511,24.271 -36.145,29.432C-36.67,33.197 -36.95,36.851 -36.987,40.4C-37.018,43.303 -36.708,46.153 -36.06,48.948C-35.327,52.819 -34.043,55.578 -31.455,57.836C-28.865,60.094 -25.391,60.937 -21.52,60.95C-12.891,60.98 -6.921,53.182 -4.852,49.11C-2.927,45.322 -1.503,40.103 0,29.432M9.084,-41.614C9.377,-41.937 9.718,-42.097 10.106,-42.097L17.363,-42.097C18.33,-42.097 18.658,-41.617 18.508,-40.484L5.396,68.626C5.189,69.702 4.653,70.239 3.781,70.239L-3.476,70.239C-3.864,70.239 -4.178,70.077 -4.414,69.755C-4.655,69.432 -4.667,69.125 -4.62,68.626C-4.62,68.626 -3.906,62.907 -3.846,62.314C-3.787,61.721 -3.748,61.504 -3.892,61.448C-4.037,61.395 -4.208,61.476 -4.403,61.69C-6.855,64.81 -9.736,67.23 -13.043,68.948C-16.353,70.667 -19.846,71.529 -23.522,71.529C-30.104,71.529 -35.382,69.594 -39.356,65.722C-43.333,61.851 -45.77,56.585 -46.667,49.916C-47.032,47.766 -47.198,45.133 -47.165,42.013C-47.126,38.25 -46.791,34.056 -46.162,29.432C-45.102,20.508 -43.727,13.842 -42.033,9.431C-39.542,2.551 -35.807,-2.852 -30.832,-6.778C-25.855,-10.702 -20.027,-12.666 -13.35,-12.666C-9.673,-12.666 -6.391,-11.831 -3.505,-10.166C-0.62,-8.497 1.678,-6.106 3.387,-2.988C3.672,-2.448 4.041,-2.528 4.116,-3.15L8.637,-40.484C8.686,-40.953 8.791,-41.291 9.084,-41.614" style="fill:white;fill-rule:nonzero;"/>
        </g>
        <g transform="matrix(1,0,0,1,4308.24,5831.38)">
            <path d="M0,17.844C0.326,15.753 0.741,12.833 1.244,9.083C1.995,1.986 2.5,-3.337 2.356,-7.056C2.185,-11.463 0.819,-15.146 -1.81,-18.104C-4.442,-21.061 -7.983,-22.777 -12.433,-22.777C-16.983,-22.777 -21.079,-21.724 -24.592,-18.82C-28.107,-15.917 -30.566,-12.207 -31.967,-7.691C-32.566,-5.97 -33.046,-4.087 -33.406,-2.046C-33.768,-0.002 -34.263,3.655 -34.9,8.922C-35.742,15.268 -36.076,21.65 -35.945,25.535C-35.793,30.055 -34.731,33.037 -31.964,36.358C-29.349,39.496 -25.187,40.628 -20.735,40.628C-16.284,40.628 -11.86,38.629 -8.636,35.726C-5.411,32.823 -2.863,28.292 -1.756,25.129C-0.748,22.248 -0.151,18.811 0,17.844M7.624,-31.885L14.738,-31.885C15.709,-31.88 16.16,-31.587 16.027,-30.272L6.497,48.116C6.36,49.149 5.849,49.728 4.882,49.729L-2.375,49.729C-2.763,49.729 -3.113,49.518 -3.313,49.245C-3.541,48.934 -3.58,48.638 -3.519,48.116C-3.519,48.116 -2.581,40.396 -2.527,39.966C-2.467,39.495 -2.457,39.176 -2.646,39.136C-2.808,39.101 -3.047,39.447 -3.268,39.758C-5.621,43.07 -8.081,45.432 -11.512,47.558C-15.068,49.761 -19.47,51.02 -24.018,51.02C-30.89,51.02 -36.402,48.519 -40.56,43.519C-44.717,38.519 -46.754,32.042 -46.671,24.084C-46.642,21.289 -46.154,16.288 -45.208,9.083C-44.674,4.244 -44.125,0.24 -43.558,-2.933C-42.994,-6.103 -42.26,-9.034 -41.36,-11.723C-39.167,-18.066 -35.556,-23.228 -30.529,-27.208C-25.504,-31.185 -19.798,-33.176 -13.411,-33.176C-4.605,-33.176 1.258,-29.335 4.175,-21.27C4.323,-20.84 4.376,-20.689 4.532,-20.675C4.827,-20.647 4.827,-21.151 4.946,-21.883C5.064,-22.614 5.823,-28.878 6.012,-30.272C6.2,-31.666 6.828,-31.885 7.624,-31.885" style="fill:white;fill-rule:nonzero;"/>
        </g>
        <g transform="matrix(1,0,0,1,4367.43,5787.6)">
            <path d="M0,84.663C0.006,86.237 -0.001,89.104 -0.016,89.824C-0.041,90.973 0.021,91.794 -1.511,92.181C-4.242,92.871 -8.201,93.738 -12.237,93.669C-18.332,93.565 -22.781,92.583 -25.793,90.184C-28.9,87.709 -30.985,82.893 -30.652,77.862C-30.588,76.896 -30.53,75.337 -30.312,73.185L-24.116,22.055C-24.054,21.605 -24.304,21.41 -24.69,21.41L-33.089,21.41C-34.057,21.41 -34.348,20.83 -34.233,19.797L-33.586,13.506C-33.496,12.571 -33.227,11.893 -31.974,11.893L-23.43,11.893C-23.038,11.893 -22.901,11.656 -22.856,11.335L-20.614,-7.462C-20.48,-8.534 -19.872,-9.075 -19,-9.075L-12.032,-9.075C-11.669,-9.065 -11.333,-8.913 -11.093,-8.591C-10.857,-8.268 -10.822,-8.016 -10.887,-7.462L-13.116,11.248C-13.16,11.653 -13.033,11.89 -12.687,11.893L5.574,11.893C6.624,11.925 6.827,12.328 6.719,13.506C6.719,13.506 6.173,18.761 6.062,19.945C5.974,20.886 5.359,21.395 4.459,21.41L-13.802,21.41C-14.19,21.41 -14.342,21.608 -14.391,22.055C-14.391,22.055 -20.3,69.026 -20.44,73.023C-20.575,76.892 -20.66,79.667 -17.848,81.876C-14.527,84.486 -6.436,83.319 -1.462,82.434C-0.454,82.255 -0.022,83.086 -0.007,83.899C-0.004,84.067 -0.001,84.334 0,84.663" style="fill:white;fill-rule:nonzero;"/>
        </g>
        <g transform="matrix(1,0,0,1,4388.07,5865.06)">
            <path d="M0,-79.706C-1.291,-81.157 -1.925,-83.012 -1.901,-85.271C-1.871,-88.174 -0.952,-90.618 0.861,-92.609C2.672,-94.597 4.787,-95.593 7.207,-95.593C9.24,-95.593 10.901,-94.892 12.193,-93.497C13.485,-92.098 14.119,-90.215 14.094,-87.851C14.064,-84.948 13.167,-82.501 11.403,-80.513C9.641,-78.521 7.501,-77.528 4.985,-77.528C2.954,-77.528 1.292,-78.254 0,-79.706M-11.473,14.275L-1.942,-64.113C-1.836,-65.197 -1.2,-65.726 -0.329,-65.726L6.784,-65.726C7.268,-65.726 7.629,-65.565 7.869,-65.243C8.104,-64.92 8.144,-64.686 8.075,-64.113L-1.456,14.275C-1.581,15.348 -2.199,15.887 -3.07,15.887L-10.183,15.887C-11.054,15.887 -11.588,15.294 -11.473,14.275" style="fill:white;fill-rule:nonzero;"/>
        </g>
        <g transform="matrix(1,0,0,1,4440.71,5812.48)">
            <path d="M0,55.646C3.561,52.798 6.189,48.952 7.887,44.113C9.181,40.46 10.255,35.028 11.105,27.823C11.739,22.77 12.073,18.577 12.108,15.243C12.126,13.524 12.09,12.286 12.001,11.533C11.472,6.694 9.745,2.85 6.824,0C3.901,-2.848 0.166,-4.274 -4.381,-4.274C-8.931,-4.274 -12.96,-2.848 -16.475,0C-19.987,2.85 -22.641,6.694 -24.434,11.533C-25.632,15.081 -26.657,20.512 -27.507,27.823C-28.14,32.662 -28.473,36.802 -28.509,40.243C-28.528,42.072 -28.494,43.362 -28.404,44.113C-27.971,48.952 -26.294,52.798 -23.371,55.646C-20.45,58.496 -16.667,59.92 -12.021,59.92C-7.571,59.92 -3.564,58.496 0,55.646M-30.063,63.953C-34.474,59.976 -37.175,54.492 -38.165,47.501C-38.433,45.242 -38.55,42.662 -38.52,39.758C-38.485,36.533 -38.204,32.501 -37.667,27.662C-36.71,19.492 -35.288,12.931 -33.396,7.984C-30.809,1.104 -26.809,-4.327 -21.396,-8.307C-15.982,-12.284 -9.843,-14.275 -2.97,-14.275C3.708,-14.275 9.225,-12.284 13.588,-8.307C17.95,-4.327 20.626,1.049 21.622,7.823C21.985,9.867 22.155,12.395 22.124,15.403C22.099,17.77 21.765,21.855 21.124,27.662C20.065,36.266 18.642,42.878 16.852,47.501C14.261,54.492 10.284,59.976 4.921,63.953C-0.444,67.932 -6.515,69.921 -13.287,69.921C-20.062,69.921 -25.655,67.932 -30.063,63.953" style="fill:white;fill-rule:nonzero;"/>
        </g>
        <g transform="matrix(1,0,0,1,4523.6,5874.82)">
            <path d="M0,-70.163C3.825,-65.97 5.703,-60.269 5.628,-53.066C5.619,-52.204 5.505,-50.7 5.291,-48.55L-1.27,4.677C-1.378,5.71 -2.012,6.29 -2.884,6.29L-10.141,6.29C-10.837,6.29 -11.406,5.748 -11.285,4.677C-11.106,3.08 -4.895,-46.292 -4.895,-46.292C-4.791,-47.043 -4.731,-48.119 -4.716,-49.517C-4.662,-54.679 -5.949,-58.792 -8.579,-61.856C-11.209,-64.921 -14.797,-66.453 -19.344,-66.453C-24.57,-66.453 -28.995,-64.624 -32.612,-60.969C-36.232,-57.312 -38.246,-53.421 -39.149,-46.614C-40.867,-33.663 -45.348,4.677 -45.348,4.677C-45.41,5.172 -45.501,5.483 -45.795,5.806C-46.088,6.128 -46.478,6.29 -46.961,6.29L-54.074,6.29C-54.946,6.29 -55.491,5.737 -55.364,4.677L-45.833,-73.711C-45.719,-74.801 -45.091,-75.324 -44.22,-75.324L-37.107,-75.324C-36.624,-75.324 -36.263,-75.163 -36.023,-74.84C-35.787,-74.518 -35.759,-74.209 -35.817,-73.711L-36.617,-66.776C-36.655,-66.415 -36.279,-66.146 -36.09,-66.406C-33.733,-69.738 -30.776,-72.285 -27.322,-73.953C-23.871,-75.619 -20.063,-76.453 -15.901,-76.453C-9.129,-76.453 -3.827,-74.356 0,-70.163" style="fill:white;fill-rule:nonzero;"/>
        </g>
        <g transform="matrix(1,0,0,1,3927.16,5768.89)">
            <path d="M0,112.347C-0.465,112.347 -0.838,112.181 -1.134,111.809C-1.379,111.502 -1.459,111.18 -1.385,110.431L12.01,1.825C12.078,1.214 12.185,0.93 12.517,0.564C12.86,0.189 13.265,0 13.721,0L80.2,0C80.763,0 81.194,0.196 81.482,0.584C81.762,0.969 81.796,1.371 81.729,1.915L80.946,8.596C80.796,9.86 80.051,10.422 79.09,10.422L21.668,10.422C21.492,10.422 21.215,10.526 21.178,10.912L16.474,50.293C16.431,50.541 16.549,50.62 16.785,50.643L56.036,50.643C56.564,50.643 56.955,50.793 57.2,51.088C57.47,51.415 57.546,51.906 57.424,52.547L56.573,59.374C56.284,60.886 55.405,61.199 54.718,61.199L15.467,61.199C15.293,61.199 15.176,61.227 15.144,61.582L9.043,110.522C8.865,111.956 7.876,112.347 7.19,112.347L0,112.347Z" style="fill:white;fill-rule:nonzero;"/>
        </g>
    </g>
</svg>
